<svg width="575.702949357" height="611.288293125" xmlns="http://www.w3.org/2000/svg">
 <title>Produce by Acme CAD Converter</title>

 <desc>Produce by Acme CAD Converter</desc>
 <g>
  <title>background</title>
  <rect fill="none" id="canvas_background" height="402" width="582" y="-1" x="-1"/>
 </g>
 <g>
  <title>Layer 1</title>
  <g id="svg_47">
   <g display="visible" id="0">
    <g id="svg_1">
     <path id="svg_2" stroke-width="0.5" stroke="black" fill="none" d="m0.001243,166.57103l0,277.680527"/>
    </g>
    <g id="svg_3">
     <path id="svg_4" stroke-width="0.5" stroke="black" fill="none" d="m156.937424,610.824036l136.025833,0"/>
    </g>
    <g id="svg_5">
     <path id="svg_6" stroke-width="0.5" stroke="black" fill="none" d="m575.490662,310.948853l0,-11.075134"/>
    </g>
    <g id="svg_7">
     <path id="svg_8" stroke-width="0.5" stroke="black" fill="none" d="m292.963257,-0.001363l-136.025833,0"/>
    </g>
    <g id="svg_9">
     <path id="svg_10" stroke-width="0.5" stroke="black" fill="none" d="m292.963257,610.824036l21.120361,-0.844849m0,0l20.99472,-2.491089m0,0l20.785248,-4.180786m0,0l20.40799,-5.782349m0,0l19.947083,-7.427856m0,0l19.360352,-8.940308m0,0l18.647766,-10.496948m0,0l17.893768,-11.920227m0,0l17.013672,-13.343628m0,0l16.007996,-14.589111m0,0l14.959991,-15.878662m0,0l13.74527,-16.99115m0,0l12.571594,-18.058075m0,0l11.230957,-18.992462m0,0l9.889648,-19.79303m0,0l8.423035,-20.593658m0,0l6.997925,-21.12738m0,0l5.447937,-21.661102m0,0l3.939026,-22.061462m0,0l2.346802,-22.283875m0,0l0.796265,-22.417175"/>
    </g>
    <g id="svg_11">
     <path id="svg_12" stroke-width="0.5" stroke="black" fill="none" d="m575.490662,299.873718l-0.796265,-22.417114m0,0l-2.346802,-22.283875m0,0l-3.939026,-22.061508m0,0l-5.447937,-21.661102m0,0l-6.997925,-21.12735m0,0l-8.423035,-20.593674m0,0l-9.889648,-19.793045m0,0l-11.230957,-18.992203m0,0l-12.571594,-18.058334m0,0l-13.74527,-16.990883m0,0l-14.959991,-15.834389m0,0l-16.007996,-14.633652m0,0l-17.013672,-13.343609m0,0l-17.893768,-11.92025m0,0l-18.647766,-10.496899m0,0l-19.360352,-8.940254m0,0l-19.947083,-7.427864m0,0l-20.40799,-5.782172m0,0l-20.785248,-4.181005m0,0l-20.99472,-2.490794m0,0l-21.120361,-0.845105"/>
    </g>
    <g id="svg_13">
     <path id="svg_14" stroke-width="0.5" stroke="black" fill="none" d="m156.937424,-0.001363l-15.379028,0.800583m0,0l-15.211746,2.401751m0,0l-14.96006,3.958666m0,0l-14.49968,5.515312m0,0l-13.912422,6.983183m0,0l-13.24231,8.40653m0,0l-12.362442,9.740841m0,0l-11.398197,10.986099m0,0l-10.350555,12.098339m0,0l-9.177076,13.121265m0,0l-7.920214,14.05513m0,0l-6.579463,14.76696m0,0l-5.19625,15.389435m0,0l-3.729658,15.878922m0,0l-2.262553,16.145782m0,0l-0.754525,16.323593"/>
    </g>
    <g id="svg_15">
     <path id="svg_16" stroke-width="0.5" stroke="black" fill="none" d="m0.001243,444.251556l0.754525,16.323639m0,0l2.262553,16.145752m0,0l3.729658,15.878937m0,0l5.19625,15.389404m0,0l6.579463,14.766937m0,0l7.920214,14.055176m0,0l9.177076,13.121521m0,0l10.350555,12.098083m0,0l11.398197,10.986084m0,0l12.362442,9.74115m0,0l13.24231,8.40625m0,0l13.912422,6.983215m0,0l14.49968,5.515259m0,0l14.96006,3.95874m0,0l15.211746,2.401917m0,0l15.379028,0.800415"/>
    </g>
   </g>
   <g display="visible" id="02___PRT_ALL_AXES">
    <g id="svg_17">
     <path id="svg_18" stroke-width="0.5" stroke="black" fill="none" d="m128.190262,460.886536l0.754501,-3.602753m0,0l2.179184,-2.891205m0,0l3.142929,-1.601196m0,0l3.519928,0m0,0l3.142899,1.601196m0,0l2.179184,2.891205m0,0l0.754517,3.602753m0,0l-0.754517,3.647034m0,0l-2.179184,2.891235m0,0l-3.142899,1.601135m0,0l-3.519928,0m0,0l-3.142929,-1.601135m0,0l-2.179184,-2.891235m0,0l-0.754501,-3.647034"/>
    </g>
    <g id="svg_19">
     <path id="svg_20" stroke-width="0.5" stroke="black" fill="none" d="m447.8461,327.05011l0.754547,-3.602753m0,0l2.178894,-2.891235m0,0l3.184875,-1.601166m0,0l3.478241,0m0,0l3.142883,1.601166m0,0l2.17923,2.891235m0,0l0.753967,3.602753m0,0l-0.753967,3.647278m0,0l-2.17923,2.891235m0,0l-3.142883,1.601166m0,0l-3.478241,0m0,0l-3.184875,-1.601166m0,0l-2.178894,-2.891235m0,0l-0.754547,-3.647278"/>
    </g>
    <g id="svg_21">
     <path id="svg_22" stroke-width="0.5" stroke="black" fill="none" d="m138.625214,133.968369l0.795959,-3.602768m0,0l2.179153,-2.935745m0,0l3.142929,-1.601166m0,0l3.477966,0m0,0l3.142929,1.601166m0,0l2.179199,2.935745m0,0l0.796463,3.602768m0,0l-0.796463,3.602753m0,0l-2.179199,2.890961m0,0l-3.142929,1.601425m0,0l-3.477966,0m0,0l-3.142929,-1.601425m0,0l-2.179153,-2.890961m0,0l-0.795959,-3.602753"/>
    </g>
    <g id="svg_23">
     <path id="svg_24" stroke-width="0.5" stroke="black" fill="none" d="m484.974396,341.505676l0.628723,-1.556641m0,0l1.466522,-0.667267m0,0l1.508514,0.667267m0,0l0.586823,1.556641m0,0l-0.586823,1.556885m0,0l-1.508514,0.667023m0,0l-1.466522,-0.667023m0,0l-0.628723,-1.556885"/>
    </g>
    <g id="svg_25">
     <path id="svg_26" stroke-width="0.5" stroke="black" fill="none" d="m484.974396,269.316864l0.628723,-1.556885m0,0l1.466522,-0.667023m0,0l1.508514,0.667023m0,0l0.586823,1.556885m0,0l-0.586823,1.556946m0,0l-1.508514,0.666992m0,0l-1.466522,-0.666992m0,0l-0.628723,-1.556946"/>
    </g>
    <g id="svg_27">
     <path id="svg_28" stroke-width="0.5" stroke="black" fill="none" d="m554.035034,269.316864l0.628418,-1.556885m0,0l1.466919,-0.667023m0,0l1.508484,0.667023m0,0l0.58667,1.556885m0,0l-0.58667,1.556946m0,0l-1.508484,0.666992m0,0l-1.466919,-0.666992m0,0l-0.628418,-1.556946"/>
    </g>
    <g id="svg_29">
     <path id="svg_30" stroke-width="0.5" stroke="black" fill="none" d="m554.035034,341.505676l0.628418,-1.556641m0,0l1.466919,-0.667267m0,0l1.508484,0.667267m0,0l0.58667,1.556641m0,0l-0.58667,1.556885m0,0l-1.508484,0.667023m0,0l-1.466919,-0.667023m0,0l-0.628418,-1.556885"/>
    </g>
    <g id="svg_31">
     <path id="svg_32" stroke-width="0.5" stroke="black" fill="none" d="m91.145874,476.320496l0.586739,-1.601166m0,0l1.508537,-0.622742m0,0l1.466583,0.622742m0,0l0.628685,1.601166m0,0l-0.628685,1.556671m0,0l-1.466583,0.667297m0,0l-1.508537,-0.667297m0,0l-0.586739,-1.556671"/>
    </g>
    <g id="svg_33">
     <path id="svg_34" stroke-width="0.5" stroke="black" fill="none" d="m56.615719,539.791687l0.586735,-1.556641m0,0l1.508545,-0.667236m0,0l1.466591,0.667236m0,0l0.628685,1.556641m0,0l-0.628685,1.556641m0,0l-1.466591,0.667358m0,0l-1.508545,-0.667358m0,0l-0.586735,-1.556641"/>
    </g>
    <g id="svg_35">
     <path id="svg_36" stroke-width="0.5" stroke="black" fill="none" d="m115.535194,575.863831l0.586235,-1.556702m0,0l1.467102,-0.667236m0,0l1.508545,0.667236m0,0l0.586739,1.556702m0,0l-0.586739,1.601196m0,0l-1.508545,0.622681m0,0l-1.467102,-0.622681m0,0l-0.586235,-1.601196"/>
    </g>
    <g id="svg_37">
     <path id="svg_38" stroke-width="0.5" stroke="black" fill="none" d="m150.065353,512.392639l0.586243,-1.556641m0,0l1.467087,-0.667328m0,0l1.508545,0.667328m0,0l0.586746,1.556641m0,0l-0.586746,1.60144m0,0l-1.508545,0.622559m0,0l-1.467087,-0.622559m0,0l-0.586243,-1.60144"/>
    </g>
    <g id="svg_39">
     <path id="svg_40" stroke-width="0.5" stroke="black" fill="none" d="m91.145874,134.502075l0.586739,-1.556641m0,0l1.508537,-0.667267m0,0l1.466583,0.667267m0,0l0.628685,1.556641m0,0l-0.628685,1.601166m0,0l-1.466583,0.622787m0,0l-1.508537,-0.622787m0,0l-0.586739,-1.601166"/>
    </g>
    <g id="svg_41">
     <path id="svg_42" stroke-width="0.5" stroke="black" fill="none" d="m56.615719,71.030945l0.586735,-1.556648m0,0l1.508545,-0.66729m0,0l1.466591,0.66729m0,0l0.628685,1.556648m0,0l-0.628685,1.601158m0,0l-1.466591,0.622772m0,0l-1.508545,-0.622772m0,0l-0.586735,-1.601158"/>
    </g>
    <g id="svg_43">
     <path id="svg_44" stroke-width="0.5" stroke="black" fill="none" d="m115.535194,34.958809l0.586235,-1.601173m0,0l1.467102,-0.622765m0,0l1.508545,0.622765m0,0l0.586739,1.601173m0,0l-0.586739,1.556641m0,0l-1.508545,0.667286m0,0l-1.467102,-0.667286m0,0l-0.586235,-1.556641"/>
    </g>
    <g id="svg_45">
     <path id="svg_46" stroke-width="0.5" stroke="black" fill="none" d="m150.065353,98.429955l0.586243,-1.556915m0,0l1.467087,-0.667023m0,0l1.508545,0.667023m0,0l0.586746,1.556915m0,0l-0.586746,1.556641m0,0l-1.508545,0.667297m0,0l-1.467087,-0.667297m0,0l-0.586243,-1.556641"/>
    </g>
   </g>
  </g>
 </g>
</svg>