<?xml version="1.0"?>
<!DOCTYPE svg PUBLIC "-//W3C//DTD SVG 1.1//EN" "http://www.w3.org/Graphics/SVG/1.1/DTD/svg11.dtd">
<svg width="575.702949357" height="611.288293125" viewBox="0 0 575.702949357 611.288293125" xmlns="http://www.w3.org/2000/svg" version="1.1">
<g id="Circle004" transform="translate(396.547680,305.644147) scale(1,-1)">
<circle cx="65.5381331323" cy="243.381343608" r="2.0" stroke="#000000" stroke-width="0.35 px" style="stroke-width:0.35;stroke-miterlimit:4;stroke-dasharray:none;fill:#cccccc"/>
<title>Circle004</title>
</g>
<g id="Circle005" transform="translate(396.547680,305.644147) scale(1,-1)">
<circle cx="80.0" cy="-200.0" r="2.0" stroke="#000000" stroke-width="0.35 px" style="stroke-width:0.35;stroke-miterlimit:4;stroke-dasharray:none;fill:#cccccc"/>
<title>Circle005</title>
</g>
<g id="Circle003" transform="translate(396.547680,305.644147) scale(1,-1)">
<circle cx="123.676727391" cy="214.312223308" r="2.0" stroke="#000000" stroke-width="0.35 px" style="stroke-width:0.35;stroke-miterlimit:4;stroke-dasharray:none;fill:#cccccc"/>
<title>Circle003</title>
</g>
<g id="Circle002" transform="translate(396.547680,305.644147) scale(1,-1)">
<circle cx="94.3211040508" cy="156.318711789" r="2.0" stroke="#000000" stroke-width="0.35 px" style="stroke-width:0.35;stroke-miterlimit:4;stroke-dasharray:none;fill:#cccccc"/>
<title>Circle002</title>
</g>
<g id="Circle007" transform="translate(396.547680,305.644147) scale(1,-1)">
<circle cx="65.4625105014" cy="-243.609750745" r="2.0" stroke="#000000" stroke-width="0.35 px" style="stroke-width:0.35;stroke-miterlimit:4;stroke-dasharray:none;fill:#cccccc"/>
<title>Circle007</title>
</g>
<g id="Circle009" transform="translate(396.547680,305.644147) scale(1,-1)">
<circle cx="94.2456811331" cy="-156.547184952" r="2.0" stroke="#000000" stroke-width="0.35 px" style="stroke-width:0.35;stroke-miterlimit:4;stroke-dasharray:none;fill:#cccccc"/>
<title>Circle009</title>
</g>
<g id="Circle011" transform="translate(396.547680,305.644147) scale(1,-1)">
<circle cx="-287.5" cy="32.5" r="2.0" stroke="#000000" stroke-width="0.35 px" style="stroke-width:0.35;stroke-miterlimit:4;stroke-dasharray:none;fill:#cccccc"/>
<title>Circle011</title>
</g>
<g id="Circle013" transform="translate(396.547680,305.644147) scale(1,-1)">
<circle cx="-352.5" cy="-32.5" r="2.0" stroke="#000000" stroke-width="0.35 px" style="stroke-width:0.35;stroke-miterlimit:4;stroke-dasharray:none;fill:#cccccc"/>
<title>Circle013</title>
</g>
<g id="Circle014" transform="translate(396.547680,305.644147) scale(1,-1)">
<circle cx="-287.5" cy="-32.5" r="2.0" stroke="#000000" stroke-width="0.35 px" style="stroke-width:0.35;stroke-miterlimit:4;stroke-dasharray:none;fill:#cccccc"/>
<title>Circle014</title>
</g>
<g id="Circle008" transform="translate(396.547680,305.644147) scale(1,-1)">
<circle cx="123.600795245" cy="-214.541901719" r="2.0" stroke="#000000" stroke-width="0.35 px" style="stroke-width:0.35;stroke-miterlimit:4;stroke-dasharray:none;fill:#cccccc"/>
<title>Circle008</title>
</g>
<g id="Circle015" transform="translate(396.547680,305.644147) scale(1,-1)">
<circle cx="-20.0" cy="40.0" r="2.0" stroke="#000000" stroke-width="0.35 px" style="stroke-width:0.35;stroke-miterlimit:4;stroke-dasharray:none;fill:#cccccc"/>
<title>Circle015</title>
</g>
<g id="Circle" transform="translate(396.547680,305.644147) scale(1,-1)">
<circle cx="80.0" cy="200.0" r="2.0" stroke="#000000" stroke-width="0.35 px" style="stroke-width:0.35;stroke-miterlimit:4;stroke-dasharray:none;fill:#cccccc"/>
<title>Circle</title>
</g>
<g id="Circle001" transform="translate(396.547680,305.644147) scale(1,-1)">
<circle cx="36.1832640399" cy="185.387450304" r="2.0" stroke="#000000" stroke-width="0.35 px" style="stroke-width:0.35;stroke-miterlimit:4;stroke-dasharray:none;fill:#cccccc"/>
<title>Circle001</title>
</g>
<g id="Circle006" transform="translate(396.547680,305.644147) scale(1,-1)">
<circle cx="36.1077744414" cy="-185.615790104" r="2.0" stroke="#000000" stroke-width="0.35 px" style="stroke-width:0.35;stroke-miterlimit:4;stroke-dasharray:none;fill:#cccccc"/>
<title>Circle006</title>
</g>
<g id="Circle012" transform="translate(396.547680,305.644147) scale(1,-1)">
<circle cx="-352.5" cy="32.5" r="2.0" stroke="#000000" stroke-width="0.35 px" style="stroke-width:0.35;stroke-miterlimit:4;stroke-dasharray:none;fill:#cccccc"/>
<title>Circle012</title>
</g>
<g id="Circle010" transform="translate(396.547680,305.644147) scale(1,-1)">
<circle cx="-320.0" cy="0.0" r="2.0" stroke="#000000" stroke-width="0.35 px" style="stroke-width:0.35;stroke-miterlimit:4;stroke-dasharray:none;fill:#cccccc"/>
<title>Circle010</title>
</g>
<g id="Circle016" transform="translate(396.547680,305.644147) scale(1,-1)">
<circle cx="-20.0" cy="-40.0" r="2.0" stroke="#000000" stroke-width="0.35 px" style="stroke-width:0.35;stroke-miterlimit:4;stroke-dasharray:none;fill:#cccccc"/>
<title>Circle016</title>
</g>
<g id="Sketch002" transform="translate(396.547680,305.644147) scale(1,-1)">
<path id="Sketch002"  d="M -130.0 50.0 A 50.0 10.0 -90.0 0 1 -130.0 -50.0 A 50.0 10.0 -90.0 0 1 -130.0 50.0 " stroke="#000000" stroke-width="0.35 px" style="stroke-width:0.35;stroke-miterlimit:4;stroke-dasharray:none;fill:none;fill-rule: evenodd "/>
<title>Sketch002</title>
</g>
<g id="Sketch001" transform="translate(396.547680,305.644147) scale(1,-1)">
<path id="Sketch001_w0000"  d="M 7.1054273576e-15 -300.0 A 238.564228478 238.564228478 0 0 1 91.1228286177 -300.0 A 101.934918939 101.934918939 0 0 1 160.517881561 -150.0 A 306.163965173 306.163965173 0 0 0 160.517881561 150.0 A 101.934918939 101.934918939 0 0 1 91.1228286177 300.0 A 238.564228478 238.564228478 0 0 1 3.19744231112e-14 300.0 A 611.850387814 611.850387814 0 0 1 -370.000157226 69.9997936634 A 115.571407225 115.571407225 0 0 1 -369.9999686 -70.0000418179 A 611.853896643 611.853896643 0 0 1 7.1054273576e-15 -300.0 " stroke="#000000" stroke-width="0.35 px" style="stroke-width:0.35;stroke-miterlimit:4;stroke-dasharray:none;fill:none;fill-rule: evenodd "/>
<title>Sketch001</title>
</g>
<g id="Circle019" transform="translate(396.547680,305.644147) scale(1,-1)">
<circle cx="149.982591472" cy="-180.0" r="2.5" stroke="#000000" stroke-width="0.35 px" style="stroke-width:0.35;stroke-miterlimit:4;stroke-dasharray:none;fill:#cccccc"/>
<title>Circle019</title>
</g>
<g id="Circle018" transform="translate(396.547680,305.644147) scale(1,-1)">
<circle cx="-230.017408528" cy="-180.0" r="2.5" stroke="#000000" stroke-width="0.35 px" style="stroke-width:0.35;stroke-miterlimit:4;stroke-dasharray:none;fill:#cccccc"/>
<title>Circle018</title>
</g>
<g id="Circle020" transform="translate(396.547680,305.644147) scale(1,-1)">
<circle cx="149.982591472" cy="180.0" r="2.5" stroke="#000000" stroke-width="0.35 px" style="stroke-width:0.35;stroke-miterlimit:4;stroke-dasharray:none;fill:#cccccc"/>
<title>Circle020</title>
</g>
<g id="Circle017" transform="translate(396.547680,305.644147) scale(1,-1)">
<circle cx="-230.017408528" cy="180.0" r="2.5" stroke="#000000" stroke-width="0.35 px" style="stroke-width:0.35;stroke-miterlimit:4;stroke-dasharray:none;fill:#cccccc"/>
<title>Circle017</title>
</g>
</svg>